<?xml version="1.0" standalone="no"?>
<!DOCTYPE svg PUBLIC "-//W3C//DTD SVG 20010904//EN"
 "http://www.w3.org/TR/2001/REC-SVG-20010904/DTD/svg10.dtd">
<svg version="1.0" xmlns="http://www.w3.org/2000/svg"
 width="612.000000pt" height="612.000000pt" viewBox="0 0 612.000000 612.000000"
 preserveAspectRatio="xMidYMid meet">
<metadata>
Created by potrace 1.11, written by Peter Selinger 2001-2013
</metadata>
<g transform="translate(0.000000,612.000000) scale(0.100000,-0.100000)"
fill="#000000" stroke="none">
<path d="M0 3060 l0 -3060 3060 0 3060 0 0 3060 0 3060 -3060 0 -3060 0 0
-3060z m1644 1548 c87 -43 963 -552 984 -572 59 -53 57 -28 57 -676 0 -648 2
-623 -57 -676 -35 -32 -993 -582 -1032 -593 -19 -5 -50 -6 -68 -2 -45 10
-1004 564 -1046 604 -18 17 -37 47 -42 67 -13 47 -13 1153 0 1200 5 20 24 50
42 67 40 37 1000 594 1043 603 37 9 69 3 119 -22z m1803 -439 c42 -16 73 -37
115 -79 48 -49 60 -69 79 -130 25 -82 23 -203 -4 -278 -49 -137 -162 -212
-322 -212 -146 0 -249 59 -307 178 -32 64 -33 72 -33 182 0 105 2 120 27 170
36 73 101 135 174 165 79 33 189 34 271 4z m708 -4 c104 -30 154 -89 163 -193
13 -157 -81 -243 -283 -258 l-85 -7 0 -113 0 -114 -80 0 -80 0 0 344 0 345 43
5 c124 17 241 13 322 -9z m745 -55 l0 -70 -155 0 -155 0 0 -65 0 -65 140 0
140 0 0 -65 0 -65 -140 0 -140 0 0 -80 0 -80 168 -2 167 -3 3 -67 3 -68 -251
0 -250 0 0 350 0 350 235 0 235 0 0 -70z m346 -21 c41 -51 110 -141 152 -201
l77 -108 3 200 2 201 78 -3 77 -3 3 -347 2 -348 -69 0 -69 0 -32 58 c-45 78
-119 189 -199 295 l-66 89 -3 -221 -2 -221 -80 0 -80 0 0 350 0 350 65 0 65 0
76 -91z m-1790 -1070 c116 -36 170 -137 143 -266 -23 -112 -110 -167 -286
-180 l-83 -6 0 -113 0 -114 -80 0 -80 0 0 344 0 345 53 5 c28 3 68 8 87 10 62
7 183 -6 246 -25z m1290 16 c77 -23 77 -23 53 -93 -11 -34 -22 -62 -24 -62 -1
0 -20 7 -41 16 -56 24 -167 24 -193 0 -26 -24 -27 -58 -2 -80 10 -9 62 -35
116 -57 111 -45 150 -72 173 -114 38 -73 29 -189 -19 -241 -53 -57 -93 -69
-229 -69 -99 0 -136 4 -177 19 -29 11 -53 24 -53 29 0 6 9 36 21 67 l21 58 41
-18 c90 -39 224 -33 247 10 29 54 -3 87 -127 136 -143 55 -193 109 -193 209 0
85 53 160 134 189 54 19 190 20 252 1z m580 0 c81 -24 80 -24 54 -95 -18 -48
-26 -60 -39 -54 -132 57 -268 27 -233 -51 13 -28 36 -41 151 -85 101 -39 152
-85 169 -153 15 -56 15 -72 1 -120 -16 -60 -72 -114 -137 -133 -91 -27 -292
-10 -345 28 -16 12 -16 17 4 75 l21 63 27 -14 c39 -21 149 -39 190 -31 55 10
81 31 81 65 0 43 -25 63 -136 106 -145 56 -195 112 -194 218 1 72 65 154 142
183 47 17 186 16 244 -2z m-1271 -102 c80 -184 225 -559 225 -584 0 -5 -37 -9
-83 -9 l-83 0 -24 75 -24 75 -136 0 -136 0 -24 -75 -24 -75 -83 0 c-46 0 -83
2 -83 4 0 28 206 550 256 648 l24 48 74 0 74 0 47 -107z"/>
<path d="M1912 3629 c-194 -34 -306 -211 -272 -431 20 -135 69 -205 180 -257
48 -22 68 -26 160 -25 106 0 217 23 226 48 8 21 -33 121 -47 118 -8 -2 -41
-11 -74 -19 -36 -9 -80 -13 -111 -10 -113 12 -165 70 -172 196 -5 94 8 139 55
192 49 54 116 69 210 45 99 -26 94 -27 116 38 22 67 22 68 -58 91 -70 20 -150
25 -213 14z"/>
<path d="M910 3275 l0 -345 75 0 75 0 0 223 1 222 36 -40 c45 -51 159 -215
224 -322 l50 -83 65 0 64 0 0 345 0 345 -75 0 -75 0 -2 -202 -3 -201 -39 59
c-55 83 -150 208 -214 282 l-54 62 -64 0 -64 0 0 -345z"/>
<path d="M3226 4027 c-62 -34 -91 -101 -90 -202 0 -138 55 -206 169 -213 79
-4 129 23 163 90 34 66 35 181 2 251 -43 90 -155 125 -244 74z"/>
<path d="M3950 3950 l0 -102 70 4 c98 5 125 26 125 98 0 71 -25 91 -124 98
l-71 5 0 -103z"/>
<path d="M3237 2903 c-4 -3 -7 -48 -7 -100 l0 -93 53 0 c109 0 157 31 157 100
0 47 -22 77 -68 90 -42 11 -125 14 -135 3z"/>
<path d="M3877 2740 l-45 -120 94 0 c52 0 94 3 94 7 0 16 -85 233 -91 233 -3
0 -27 -54 -52 -120z"/>
</g>
</svg>
