<?xml version="1.0" encoding="utf-8"?>
<!-- Generator: Adobe Illustrator 21.0.2, SVG Export Plug-In . SVG Version: 6.00 Build 0)  -->
<svg version="1.1" id="Layer_1" xmlns="http://www.w3.org/2000/svg" xmlns:xlink="http://www.w3.org/1999/xlink" x="0px" y="0px"
	 viewBox="0 0 523 298" style="enable-background:new 0 0 523 298;" xml:space="preserve">
<style type="text/css">
	.st0{fill:#1D365C;}
	.st1{enable-background:new    ;}
	.st2{fill:#FFFFFF;}
</style>
<title>NCOP_draft04a copy</title>
<rect x="-9" y="-9" class="st0" width="542" height="316.5"/>
<g class="st1">
	<path class="st2" d="M221.6,133.7c0,3-0.4,5.6-1.3,7.8c-0.9,2.2-2.1,4.1-3.6,5.7c-1.5,1.5-3.4,2.7-5.5,3.4
		c-2.1,0.8-4.4,1.2-6.8,1.2c-2.4,0-4.6-0.4-6.7-1.2c-2.1-0.8-3.9-1.9-5.5-3.4c-1.6-1.5-2.8-3.4-3.7-5.7s-1.4-4.9-1.4-7.8
		s0.5-5.6,1.4-7.8c0.9-2.2,2.2-4.1,3.8-5.7c1.6-1.5,3.4-2.7,5.5-3.5c2.1-0.8,4.3-1.2,6.6-1.2c2.4,0,4.6,0.4,6.7,1.2
		c2.1,0.8,3.9,1.9,5.5,3.5c1.6,1.5,2.8,3.4,3.7,5.7S221.6,130.7,221.6,133.7z M195.1,133.7c0,1.7,0.2,3.2,0.6,4.6
		c0.4,1.4,1,2.5,1.8,3.5c0.8,1,1.7,1.7,2.9,2.3c1.1,0.5,2.4,0.8,3.9,0.8c1.4,0,2.7-0.3,3.9-0.8c1.1-0.5,2.1-1.3,2.9-2.3
		c0.8-1,1.4-2.2,1.8-3.5c0.4-1.4,0.6-2.9,0.6-4.6c0-1.7-0.2-3.2-0.6-4.6c-0.4-1.4-1-2.6-1.8-3.6c-0.8-1-1.8-1.7-2.9-2.3
		s-2.4-0.8-3.9-0.8c-1.5,0-2.8,0.3-3.9,0.8c-1.1,0.6-2.1,1.3-2.9,2.3c-0.8,1-1.4,2.2-1.8,3.5C195.4,130.5,195.1,132,195.1,133.7z"/>
	<path class="st2" d="M238.5,116c5.2,0,9.1,0.9,11.9,2.7c2.8,1.8,4.2,4.8,4.2,8.9c0,4.2-1.4,7.2-4.2,9s-6.8,2.8-12,2.8h-2.5V151
		h-7.8v-34.2c1.7-0.3,3.5-0.6,5.4-0.7S237.1,116,238.5,116z M239,122.6c-0.6,0-1.1,0-1.7,0.1c-0.6,0-1,0.1-1.4,0.1v10h2.5
		c2.7,0,4.7-0.4,6.1-1.1c1.4-0.7,2-2.1,2-4.1c0-1-0.2-1.8-0.5-2.4s-0.9-1.1-1.5-1.5c-0.6-0.4-1.4-0.7-2.4-0.8
		C241.2,122.7,240.1,122.6,239,122.6z"/>
	<path class="st2" d="M260.3,151v-34.7h23.4v6.6h-15.6v6.8h13.8v6.4h-13.8v8.4h16.8v6.5H260.3z"/>
	<path class="st2" d="M313.8,151c-2.2-4-4.6-7.9-7.2-11.8c-2.6-3.9-5.4-7.5-8.3-11V151h-7.7v-34.7h6.4c1.1,1.1,2.3,2.5,3.6,4.1
		c1.3,1.6,2.7,3.3,4.1,5.1c1.4,1.8,2.8,3.7,4.1,5.6c1.4,2,2.7,3.8,3.8,5.6v-20.5h7.8V151H313.8z"/>
</g>
<g class="st1">
	<path class="st2" d="M350.8,116c5.2,0,9.1,0.9,11.9,2.7c2.8,1.8,4.2,4.8,4.2,8.9c0,4.2-1.4,7.2-4.2,9s-6.8,2.8-12,2.8h-2.5V151
		h-7.8v-34.2c1.7-0.3,3.5-0.6,5.4-0.7C347.7,116,349.4,116,350.8,116z M351.3,122.6c-0.6,0-1.1,0-1.7,0.1s-1,0.1-1.4,0.1v10h2.5
		c2.7,0,4.7-0.4,6.1-1.1c1.4-0.7,2-2.1,2-4.1c0-1-0.2-1.8-0.5-2.4c-0.4-0.6-0.9-1.1-1.5-1.5c-0.7-0.4-1.4-0.7-2.4-0.8
		C353.5,122.7,352.4,122.6,351.3,122.6z"/>
</g>
<g class="st1">
	<path class="st2" d="M392.4,151c-0.4-1.2-0.8-2.4-1.2-3.7c-0.4-1.3-0.9-2.5-1.3-3.8h-13.5c-0.4,1.3-0.9,2.5-1.3,3.8
		c-0.4,1.3-0.8,2.5-1.2,3.7h-8.1c1.3-3.7,2.5-7.2,3.7-10.3c1.2-3.2,2.3-6.2,3.4-9c1.1-2.8,2.2-5.5,3.3-8c1.1-2.5,2.2-5,3.4-7.4h7.4
		c1.1,2.4,2.3,4.9,3.4,7.4c1.1,2.5,2.2,5.2,3.3,8c1.1,2.8,2.3,5.8,3.4,9s2.4,6.6,3.7,10.3H392.4z M383.1,124.2
		c-0.2,0.5-0.4,1.2-0.8,2.1c-0.3,0.9-0.7,1.9-1.1,3c-0.4,1.1-0.9,2.4-1.4,3.8c-0.5,1.4-1.1,2.8-1.6,4.3h9.9c-0.5-1.5-1-2.9-1.5-4.3
		c-0.5-1.4-1-2.6-1.4-3.8s-0.8-2.1-1.2-3C383.6,125.4,383.3,124.7,383.1,124.2z"/>
</g>
<g class="st1">
	<path class="st2" d="M415.7,145c1.1,0,2-0.1,2.7-0.3s1.3-0.4,1.7-0.8s0.7-0.7,0.9-1.1c0.2-0.4,0.2-0.9,0.2-1.5
		c0-1.1-0.5-2.1-1.6-2.8c-1.1-0.8-2.9-1.6-5.5-2.4c-1.1-0.4-2.3-0.9-3.4-1.4c-1.1-0.5-2.2-1.2-3-2c-0.9-0.8-1.6-1.7-2.2-2.8
		c-0.6-1.1-0.8-2.5-0.8-4.1c0-1.6,0.3-3,0.9-4.3c0.6-1.3,1.5-2.4,2.5-3.3c1.1-0.9,2.4-1.6,4-2.1s3.3-0.7,5.3-0.7
		c2.3,0,4.3,0.2,6,0.8s3.1,1,4.2,1.7l-2.2,6.1c-1-0.5-2-0.9-3.2-1.3c-1.2-0.4-2.6-0.6-4.3-0.6c-1.9,0-3.2,0.3-4,0.8
		c-0.8,0.5-1.2,1.3-1.2,2.4c0,0.6,0.1,1.2,0.4,1.6c0.3,0.4,0.7,0.8,1.3,1.2s1.2,0.7,1.9,1c0.7,0.3,1.5,0.6,2.4,0.9
		c1.8,0.7,3.4,1.3,4.7,2c1.3,0.7,2.4,1.4,3.3,2.3c0.9,0.9,1.5,1.9,2,3c0.4,1.2,0.6,2.6,0.6,4.2c0,3.2-1.1,5.7-3.4,7.5
		c-2.3,1.8-5.7,2.7-10.2,2.7c-1.5,0-2.9-0.1-4.2-0.3c-1.2-0.2-2.3-0.4-3.3-0.7c-0.9-0.3-1.8-0.5-2.4-0.8c-0.7-0.3-1.3-0.6-1.7-0.9
		l2.2-6.2c1,0.6,2.3,1.1,3.8,1.5C411.6,144.8,413.5,145,415.7,145z"/>
	<path class="st2" d="M444.7,145c1.1,0,2-0.1,2.7-0.3s1.3-0.4,1.7-0.8c0.4-0.3,0.7-0.7,0.9-1.1s0.2-0.9,0.2-1.5
		c0-1.1-0.5-2.1-1.6-2.8c-1.1-0.8-2.9-1.6-5.5-2.4c-1.1-0.4-2.3-0.9-3.4-1.4s-2.1-1.2-3-2c-0.9-0.8-1.6-1.7-2.2-2.8
		s-0.8-2.5-0.8-4.1c0-1.6,0.3-3,0.9-4.3c0.6-1.3,1.4-2.4,2.5-3.3c1.1-0.9,2.4-1.6,4-2.1c1.6-0.5,3.3-0.7,5.3-0.7
		c2.3,0,4.3,0.2,6,0.8s3.1,1,4.2,1.7l-2.2,6.1c-1-0.5-2-0.9-3.2-1.3c-1.2-0.4-2.6-0.6-4.3-0.6c-1.9,0-3.2,0.3-4,0.8
		c-0.8,0.5-1.2,1.3-1.2,2.4c0,0.6,0.2,1.2,0.5,1.6c0.3,0.4,0.7,0.8,1.3,1.2c0.6,0.3,1.2,0.7,1.9,1s1.5,0.6,2.4,0.9
		c1.8,0.7,3.4,1.3,4.7,2c1.3,0.7,2.4,1.4,3.3,2.3c0.9,0.9,1.5,1.9,2,3c0.4,1.2,0.7,2.6,0.7,4.2c0,3.2-1.1,5.7-3.4,7.5
		c-2.3,1.8-5.7,2.7-10.2,2.7c-1.5,0-2.9-0.1-4.2-0.3c-1.2-0.2-2.3-0.4-3.3-0.7s-1.8-0.5-2.5-0.8c-0.7-0.3-1.3-0.6-1.7-0.9l2.2-6.2
		c1,0.6,2.3,1.1,3.8,1.5S442.5,145,444.7,145z"/>
</g>
<g class="st1">
	<path class="st2" d="M200.5,189c-2.8,0-5-0.8-6.4-2.3s-2.2-3.8-2.2-6.7c0-1.4,0.2-2.7,0.7-3.8c0.5-1.1,1.1-2.1,1.9-2.8
		c0.8-0.8,1.7-1.4,2.8-1.8c1.1-0.4,2.3-0.6,3.5-0.6c0.7,0,1.4,0.1,2,0.2s1.1,0.2,1.6,0.4c0.5,0.1,0.8,0.3,1.1,0.4
		c0.3,0.2,0.5,0.3,0.7,0.3l-1.1,3.2c-0.5-0.3-1.2-0.5-1.9-0.7c-0.7-0.2-1.5-0.3-2.4-0.3c-0.6,0-1.2,0.1-1.8,0.3
		c-0.6,0.2-1.1,0.5-1.5,1c-0.4,0.4-0.8,1-1.1,1.7c-0.3,0.7-0.4,1.5-0.4,2.5c0,0.8,0.1,1.5,0.3,2.2c0.2,0.7,0.5,1.3,0.9,1.8
		c0.4,0.5,0.9,0.9,1.5,1.2c0.6,0.3,1.4,0.4,2.3,0.4c0.6,0,1.1,0,1.5-0.1c0.5-0.1,0.9-0.1,1.2-0.2s0.7-0.2,0.9-0.3
		c0.3-0.1,0.5-0.2,0.7-0.3l1.1,3.1c-0.6,0.3-1.3,0.6-2.3,0.9S201.8,189,200.5,189z"/>
	<path class="st2" d="M208.8,171.4h3.9v17.3h-3.9V171.4z"/>
</g>
<g class="st1">
	<path class="st2" d="M229.5,171.4v3.3h-5.2v14h-3.9v-14h-5.2v-3.3H229.5z"/>
</g>
<g class="st1">
	<path class="st2" d="M239.2,178.5c0.7-1.2,1.4-2.4,2-3.5c0.6-1.2,1.2-2.4,1.8-3.6h4.3c-0.9,1.9-1.9,3.7-2.9,5.4
		c-1,1.8-2.1,3.5-3.2,5.3v6.6h-3.9v-6.6c-1.1-1.8-2.2-3.5-3.2-5.3s-2-3.6-3-5.5h4.5c0.5,1.2,1.1,2.4,1.7,3.6
		C237.9,176.1,238.5,177.3,239.2,178.5z"/>
</g>
<g class="st1">
	<path class="st2" d="M256.2,189c-2.8,0-5-0.8-6.4-2.3c-1.5-1.6-2.2-3.8-2.2-6.7c0-1.4,0.2-2.7,0.7-3.8c0.5-1.1,1.1-2.1,1.9-2.8
		c0.8-0.8,1.7-1.4,2.8-1.8c1.1-0.4,2.3-0.6,3.5-0.6c0.7,0,1.4,0.1,2,0.2c0.6,0.1,1.1,0.2,1.6,0.4c0.5,0.1,0.8,0.3,1.1,0.4
		c0.3,0.2,0.5,0.3,0.7,0.3l-1.1,3.2c-0.5-0.3-1.2-0.5-1.9-0.7c-0.7-0.2-1.5-0.3-2.4-0.3c-0.6,0-1.2,0.1-1.8,0.3
		c-0.6,0.2-1.1,0.5-1.5,1c-0.4,0.4-0.8,1-1.1,1.7s-0.4,1.5-0.4,2.5c0,0.8,0.1,1.5,0.3,2.2c0.2,0.7,0.5,1.3,0.9,1.8
		c0.4,0.5,0.9,0.9,1.5,1.2c0.6,0.3,1.4,0.4,2.3,0.4c0.6,0,1.1,0,1.5-0.1c0.5-0.1,0.8-0.1,1.2-0.2c0.3-0.1,0.7-0.2,0.9-0.3
		c0.3-0.1,0.5-0.2,0.7-0.3l1.1,3.1c-0.5,0.3-1.3,0.6-2.3,0.9S257.5,189,256.2,189z"/>
</g>
<g class="st1">
	<path class="st2" d="M276.8,188.7c-0.2-0.6-0.4-1.2-0.6-1.9c-0.2-0.6-0.4-1.3-0.7-1.9h-6.8c-0.2,0.6-0.4,1.3-0.7,1.9
		s-0.4,1.3-0.6,1.8h-4c0.7-1.9,1.3-3.6,1.9-5.2s1.2-3.1,1.7-4.5c0.6-1.4,1.1-2.7,1.7-4c0.5-1.3,1.1-2.5,1.7-3.7h3.7
		c0.6,1.2,1.1,2.4,1.7,3.7c0.6,1.3,1.1,2.6,1.7,4c0.6,1.4,1.1,2.9,1.7,4.5s1.2,3.3,1.9,5.2H276.8z M272.1,175.3
		c-0.1,0.3-0.2,0.6-0.4,1c-0.2,0.4-0.4,0.9-0.6,1.5c-0.2,0.6-0.5,1.2-0.7,1.9c-0.3,0.7-0.5,1.4-0.8,2.1h5c-0.3-0.8-0.5-1.5-0.8-2.2
		c-0.2-0.7-0.5-1.3-0.7-1.9s-0.4-1.1-0.6-1.5C272.4,175.9,272.2,175.5,272.1,175.3z"/>
	<path class="st2" d="M287.8,171.4c0.3,0.5,0.6,1.2,1,2c0.4,0.8,0.8,1.7,1.2,2.6c0.4,0.9,0.8,1.9,1.3,2.9c0.4,1,0.8,1.9,1.2,2.8
		c0.4-0.9,0.8-1.8,1.2-2.8c0.4-1,0.8-1.9,1.3-2.9c0.4-0.9,0.8-1.8,1.2-2.6c0.4-0.8,0.7-1.5,1-2h3.5c0.2,1.2,0.3,2.4,0.5,3.9
		c0.1,1.4,0.3,2.9,0.4,4.5c0.1,1.5,0.2,3.1,0.3,4.6c0.1,1.5,0.2,3,0.2,4.4h-3.8c0-1.7-0.1-3.5-0.2-5.5c-0.1-2-0.2-4-0.4-6
		c-0.3,0.7-0.6,1.5-1,2.3c-0.4,0.8-0.7,1.7-1.1,2.5s-0.7,1.7-1,2.4s-0.6,1.4-0.9,2h-2.7c-0.2-0.5-0.5-1.2-0.9-2
		c-0.3-0.8-0.7-1.6-1-2.4s-0.7-1.7-1.1-2.5c-0.4-0.9-0.7-1.6-1-2.3c-0.2,2-0.3,4-0.4,6s-0.1,3.8-0.2,5.5h-3.8
		c0.1-1.4,0.1-2.8,0.2-4.4s0.2-3.1,0.3-4.6c0.1-1.5,0.2-3,0.4-4.5c0.1-1.4,0.3-2.7,0.5-3.9H287.8z"/>
	<path class="st2" d="M310.8,171.2c2.6,0,4.6,0.5,6,1.4c1.4,0.9,2.1,2.4,2.1,4.5c0,2.1-0.7,3.6-2.1,4.5c-1.4,0.9-3.4,1.4-6,1.4h-1.2
		v5.8h-3.9v-17.1c0.9-0.2,1.8-0.3,2.7-0.3S310.1,171.2,310.8,171.2z M311.1,174.5c-0.3,0-0.6,0-0.8,0c-0.3,0-0.5,0-0.7,0v5h1.2
		c1.4,0,2.4-0.2,3-0.5s1-1,1-2c0-0.5-0.1-0.9-0.3-1.2s-0.4-0.6-0.8-0.8s-0.7-0.3-1.2-0.4C312.2,174.5,311.7,174.5,311.1,174.5z"/>
	<path class="st2" d="M339.4,188.7c-1.1-2-2.3-3.9-3.6-5.9s-2.7-3.8-4.1-5.5v11.3h-3.9v-17.3h3.2c0.6,0.5,1.2,1.2,1.8,2
		s1.3,1.7,2,2.6c0.7,0.9,1.4,1.8,2.1,2.8c0.7,1,1.3,1.9,1.9,2.8v-10.2h3.9v17.3H339.4z"/>
	<path class="st2" d="M354.5,189c-2.8,0-5-0.8-6.4-2.3c-1.5-1.6-2.2-3.8-2.2-6.7c0-1.4,0.2-2.7,0.7-3.8s1.1-2.1,1.8-2.8
		c0.8-0.8,1.7-1.4,2.8-1.8c1.1-0.4,2.3-0.6,3.5-0.6c0.7,0,1.4,0.1,2,0.2c0.6,0.1,1.1,0.2,1.6,0.4s0.8,0.3,1.1,0.4s0.5,0.3,0.7,0.3
		l-1.1,3.2c-0.5-0.3-1.2-0.5-1.9-0.7c-0.7-0.2-1.5-0.3-2.4-0.3c-0.6,0-1.2,0.1-1.8,0.3c-0.6,0.2-1.1,0.5-1.5,1
		c-0.4,0.4-0.8,1-1.1,1.7c-0.3,0.7-0.4,1.5-0.4,2.5c0,0.8,0.1,1.5,0.3,2.2c0.2,0.7,0.5,1.3,0.8,1.8s0.9,0.9,1.5,1.2
		c0.6,0.3,1.4,0.4,2.3,0.4c0.6,0,1.1,0,1.5-0.1c0.5-0.1,0.9-0.1,1.2-0.2c0.4-0.1,0.7-0.2,0.9-0.3c0.3-0.1,0.5-0.2,0.7-0.3l1.1,3.1
		c-0.6,0.3-1.3,0.6-2.3,0.9S355.9,189,354.5,189z"/>
</g>
<g class="st1">
	<path class="st2" d="M204.2,218.7c-1.1-2-2.3-3.9-3.6-5.9s-2.7-3.8-4.1-5.5v11.3h-3.9v-17.3h3.2c0.6,0.5,1.2,1.2,1.8,2
		c0.7,0.8,1.3,1.7,2,2.6c0.7,0.9,1.4,1.8,2.1,2.8c0.7,1,1.3,1.9,1.9,2.8v-10.2h3.9v17.3H204.2z"/>
	<path class="st2" d="M219.4,219c-2.8,0-5-0.8-6.4-2.3s-2.2-3.8-2.2-6.7c0-1.4,0.2-2.7,0.7-3.8c0.5-1.1,1.1-2.1,1.9-2.8
		c0.8-0.8,1.7-1.4,2.8-1.8c1.1-0.4,2.3-0.6,3.5-0.6c0.7,0,1.4,0.1,2,0.2s1.1,0.2,1.6,0.4c0.5,0.1,0.8,0.3,1.1,0.4
		c0.3,0.2,0.5,0.3,0.7,0.3l-1.1,3.2c-0.5-0.3-1.2-0.5-1.9-0.7c-0.7-0.2-1.5-0.3-2.4-0.3c-0.6,0-1.2,0.1-1.8,0.3
		c-0.6,0.2-1.1,0.5-1.5,1c-0.4,0.4-0.8,1-1.1,1.7c-0.3,0.7-0.4,1.5-0.4,2.5c0,0.8,0.1,1.5,0.3,2.2c0.2,0.7,0.5,1.3,0.9,1.8
		c0.4,0.5,0.9,0.9,1.5,1.2c0.6,0.3,1.4,0.4,2.3,0.4c0.6,0,1.1,0,1.5-0.1c0.5-0.1,0.9-0.1,1.2-0.2s0.7-0.2,0.9-0.3
		c0.3-0.1,0.5-0.2,0.7-0.3l1.1,3.1c-0.6,0.3-1.3,0.6-2.3,0.9S220.7,219,219.4,219z"/>
</g>
<g class="st1">
	<path class="st2" d="M248.9,210c0,1.5-0.2,2.8-0.7,3.9c-0.5,1.1-1.1,2-2,2.8s-1.9,1.3-3.1,1.6s-2.6,0.5-4.1,0.5
		c-0.7,0-1.5,0-2.5-0.1c-0.9-0.1-1.9-0.2-2.8-0.4v-16.9c0.9-0.2,1.8-0.3,2.8-0.3c1-0.1,1.8-0.1,2.5-0.1c1.5,0,2.8,0.2,4,0.5
		c1.2,0.3,2.2,0.9,3.1,1.6c0.9,0.7,1.5,1.6,2,2.8C248.6,207.1,248.9,208.4,248.9,210z M237.6,215.5c0.2,0,0.4,0,0.6,0
		c0.2,0,0.5,0,0.9,0c2,0,3.4-0.5,4.3-1.5s1.4-2.3,1.4-4.1c0-1.8-0.4-3.2-1.3-4.1s-2.3-1.4-4.3-1.4c-0.3,0-0.5,0-0.8,0
		c-0.3,0-0.6,0-0.8,0.1V215.5z"/>
</g>
<g class="st1">
	<path class="st2" d="M263.1,218.7c-0.2-0.6-0.4-1.2-0.6-1.9c-0.2-0.6-0.4-1.3-0.7-1.9h-6.8c-0.2,0.6-0.4,1.3-0.7,1.9
		s-0.4,1.3-0.6,1.8h-4c0.7-1.9,1.3-3.6,1.9-5.2s1.2-3.1,1.7-4.5c0.6-1.4,1.1-2.7,1.7-4c0.5-1.3,1.1-2.5,1.7-3.7h3.7
		c0.6,1.2,1.1,2.4,1.7,3.7c0.6,1.3,1.1,2.6,1.7,4c0.6,1.4,1.1,2.9,1.7,4.5s1.2,3.3,1.9,5.2H263.1z M258.4,205.3
		c-0.1,0.3-0.2,0.6-0.4,1c-0.2,0.4-0.4,0.9-0.6,1.5c-0.2,0.6-0.5,1.2-0.7,1.9c-0.3,0.7-0.5,1.4-0.8,2.1h5c-0.3-0.8-0.5-1.5-0.8-2.2
		c-0.2-0.7-0.5-1.3-0.7-1.9s-0.4-1.1-0.6-1.5C258.7,205.9,258.5,205.5,258.4,205.3z"/>
	<path class="st2" d="M278.3,201.4v3.3h-5.2v14h-3.9v-14H264v-3.3H278.3z"/>
</g>
<g class="st1">
	<path class="st2" d="M292.4,218.7c-0.2-0.6-0.4-1.2-0.6-1.9c-0.2-0.6-0.4-1.3-0.7-1.9h-6.8c-0.2,0.6-0.4,1.3-0.7,1.9
		c-0.2,0.6-0.4,1.3-0.6,1.8H279c0.7-1.9,1.3-3.6,1.9-5.2c0.6-1.6,1.2-3.1,1.7-4.5c0.6-1.4,1.1-2.7,1.7-4c0.5-1.3,1.1-2.5,1.7-3.7
		h3.7c0.6,1.2,1.1,2.4,1.7,3.7c0.6,1.3,1.1,2.6,1.7,4c0.6,1.4,1.1,2.9,1.7,4.5s1.2,3.3,1.9,5.2H292.4z M287.7,205.3
		c-0.1,0.3-0.2,0.6-0.4,1c-0.2,0.4-0.4,0.9-0.6,1.5c-0.2,0.6-0.5,1.2-0.7,1.9c-0.3,0.7-0.5,1.4-0.8,2.1h5c-0.3-0.8-0.5-1.5-0.8-2.2
		c-0.2-0.7-0.5-1.3-0.7-1.9c-0.2-0.6-0.4-1.1-0.6-1.5C287.9,205.9,287.8,205.5,287.7,205.3z"/>
</g>
<g class="st1">
	<path class="st2" d="M304,201.2c2.6,0,4.6,0.5,6,1.4c1.4,0.9,2.1,2.4,2.1,4.5c0,2.1-0.7,3.6-2.1,4.5c-1.4,0.9-3.4,1.4-6,1.4h-1.2
		v5.8h-3.9v-17.1c0.9-0.2,1.8-0.3,2.7-0.3S303.3,201.2,304,201.2z M304.2,204.5c-0.3,0-0.6,0-0.8,0c-0.3,0-0.5,0-0.7,0v5h1.2
		c1.4,0,2.4-0.2,3-0.5s1-1,1-2c0-0.5-0.1-0.9-0.3-1.2s-0.4-0.6-0.8-0.8s-0.7-0.3-1.2-0.4C305.3,204.5,304.8,204.5,304.2,204.5z"/>
</g>
<g class="st1">
	<path class="st2" d="M324.8,218.7c-0.2-0.6-0.4-1.2-0.6-1.9c-0.2-0.6-0.4-1.3-0.7-1.9h-6.8c-0.2,0.6-0.4,1.3-0.7,1.9
		s-0.4,1.3-0.6,1.8h-4c0.7-1.9,1.3-3.6,1.9-5.2s1.2-3.1,1.7-4.5c0.6-1.4,1.1-2.7,1.7-4c0.5-1.3,1.1-2.5,1.7-3.7h3.7
		c0.6,1.2,1.1,2.4,1.7,3.7c0.6,1.3,1.1,2.6,1.7,4c0.6,1.4,1.1,2.9,1.7,4.5s1.2,3.3,1.9,5.2H324.8z M320.1,205.3
		c-0.1,0.3-0.2,0.6-0.4,1c-0.2,0.4-0.4,0.9-0.6,1.5c-0.2,0.6-0.5,1.2-0.7,1.9c-0.3,0.7-0.5,1.4-0.8,2.1h5c-0.3-0.8-0.5-1.5-0.8-2.2
		c-0.2-0.7-0.5-1.3-0.7-1.9s-0.4-1.1-0.6-1.5C320.4,205.9,320.2,205.5,320.1,205.3z"/>
</g>
<g class="st1">
	<path class="st2" d="M342.8,215.3v3.3h-11.6v-17.3h3.9v14H342.8z"/>
</g>
<g class="st1">
	<path class="st2" d="M361.3,210c0,1.5-0.2,2.8-0.7,3.9c-0.4,1.1-1,2.1-1.8,2.8c-0.8,0.8-1.7,1.3-2.7,1.7c-1.1,0.4-2.2,0.6-3.4,0.6
		c-1.2,0-2.3-0.2-3.3-0.6c-1-0.4-2-1-2.8-1.7c-0.8-0.8-1.4-1.7-1.9-2.8c-0.4-1.1-0.7-2.4-0.7-3.9s0.2-2.8,0.7-3.9s1.1-2.1,1.9-2.8
		c0.8-0.8,1.7-1.3,2.8-1.7c1-0.4,2.1-0.6,3.3-0.6c1.2,0,2.3,0.2,3.4,0.6c1,0.4,2,1,2.8,1.7c0.8,0.8,1.4,1.7,1.8,2.8
		S361.3,208.5,361.3,210z M348.1,210c0,0.8,0.1,1.6,0.3,2.3c0.2,0.7,0.5,1.3,0.9,1.8s0.9,0.9,1.4,1.1s1.2,0.4,2,0.4
		c0.7,0,1.4-0.1,1.9-0.4s1.1-0.6,1.5-1.1s0.7-1.1,0.9-1.8c0.2-0.7,0.3-1.5,0.3-2.3c0-0.9-0.1-1.6-0.3-2.3c-0.2-0.7-0.5-1.3-0.9-1.8
		c-0.4-0.5-0.9-0.9-1.5-1.1c-0.6-0.3-1.2-0.4-1.9-0.4c-0.7,0-1.4,0.1-2,0.4c-0.6,0.3-1,0.7-1.4,1.2s-0.7,1.1-0.9,1.8
		C348.2,208.4,348.1,209.2,348.1,210z"/>
</g>
<g class="st1">
	<path class="st2" d="M381,210c0,1.5-0.2,2.8-0.7,3.9c-0.4,1.1-1,2.1-1.8,2.8c-0.8,0.8-1.7,1.3-2.7,1.7c-1.1,0.4-2.2,0.6-3.4,0.6
		c-1.2,0-2.3-0.2-3.3-0.6c-1-0.4-2-1-2.8-1.7c-0.8-0.8-1.4-1.7-1.9-2.8c-0.4-1.1-0.7-2.4-0.7-3.9s0.2-2.8,0.7-3.9s1.1-2.1,1.9-2.8
		c0.8-0.8,1.7-1.3,2.8-1.7c1-0.4,2.1-0.6,3.3-0.6c1.2,0,2.3,0.2,3.4,0.6c1,0.4,2,1,2.8,1.7c0.8,0.8,1.4,1.7,1.8,2.8
		S381,208.5,381,210z M367.8,210c0,0.8,0.1,1.6,0.3,2.3c0.2,0.7,0.5,1.3,0.9,1.8s0.9,0.9,1.4,1.1s1.2,0.4,2,0.4
		c0.7,0,1.4-0.1,1.9-0.4s1.1-0.6,1.5-1.1s0.7-1.1,0.9-1.8c0.2-0.7,0.3-1.5,0.3-2.3c0-0.9-0.1-1.6-0.3-2.3c-0.2-0.7-0.5-1.3-0.9-1.8
		c-0.4-0.5-0.9-0.9-1.5-1.1c-0.6-0.3-1.2-0.4-1.9-0.4c-0.7,0-1.4,0.1-2,0.4c-0.6,0.3-1,0.7-1.4,1.2s-0.7,1.1-0.9,1.8
		C367.9,208.4,367.8,209.2,367.8,210z"/>
</g>
<g class="st1">
	<path class="st2" d="M396.3,204.1c-0.5,0.5-1.2,1.3-1.9,2.1s-1.5,1.8-2.3,2.9c-0.8,1-1.6,2.1-2.3,3.2c-0.8,1.1-1.5,2.1-2.1,3.1h8.8
		v3.3h-13.6v-2.3c0.5-0.8,1-1.8,1.7-2.8c0.7-1,1.4-2.1,2.1-3.2s1.5-2.1,2.2-3.1c0.8-1,1.5-1.9,2.1-2.7h-7.8v-3.3h13V204.1z"/>
</g>
<g class="st1">
	<path class="st2" d="M411.6,218.7c-0.2-0.6-0.4-1.2-0.6-1.9c-0.2-0.6-0.4-1.3-0.7-1.9h-6.8c-0.2,0.6-0.4,1.3-0.7,1.9
		s-0.4,1.3-0.6,1.8h-4c0.7-1.9,1.3-3.6,1.9-5.2s1.2-3.1,1.7-4.5c0.6-1.4,1.1-2.7,1.7-4c0.5-1.3,1.1-2.5,1.7-3.7h3.7
		c0.6,1.2,1.1,2.4,1.7,3.7c0.6,1.3,1.1,2.6,1.7,4c0.6,1.4,1.1,2.9,1.7,4.5s1.2,3.3,1.9,5.2H411.6z M406.9,205.3
		c-0.1,0.3-0.2,0.6-0.4,1c-0.2,0.4-0.4,0.9-0.6,1.5c-0.2,0.6-0.5,1.2-0.7,1.9c-0.3,0.7-0.5,1.4-0.8,2.1h5c-0.3-0.8-0.5-1.5-0.8-2.2
		c-0.2-0.7-0.5-1.3-0.7-1.9s-0.4-1.1-0.6-1.5C407.1,205.9,407,205.5,406.9,205.3z"/>
</g>
<path class="st2" d="M55,101.3v55.6c0,2.9,1.5,5.5,4,6.9l48.2,27.8c2.5,1.4,5.5,1.4,8,0l48.2-27.8c2.5-1.4,4-4.1,4-6.9v-55.6
	c0-2.9-1.5-5.5-4-6.9l-48.2-27.8c-2.5-1.4-5.5-1.4-8,0L59,94.4C56.5,95.8,55,98.4,55,101.3z"/>
<path class="st0" d="M101.9,150.8c-2.2-4-4.6-7.9-7.2-11.8c-2.6-3.8-5.3-7.5-8.3-11v22.7h-7.7v-34.6H85c1.1,1.1,2.3,2.4,3.7,4
	c1.3,1.6,2.7,3.3,4.1,5.1c1.4,1.8,2.8,3.7,4.1,5.7c1.4,2,2.7,3.9,3.8,5.6v-20.5h7.8v34.7H101.9z"/>
<path class="st0" d="M132.3,151.5c-5.6,0-9.9-1.6-12.9-4.7c-3-3.1-4.4-7.6-4.4-13.4c0-2.6,0.4-5.2,1.3-7.7c0.8-2.1,2.1-4.1,3.7-5.7
	c1.6-1.6,3.5-2.8,5.6-3.5c2.3-0.8,4.6-1.2,7.1-1.2c1.3,0,2.7,0.1,4,0.3c1.1,0.2,2.1,0.4,3.1,0.8c0.8,0.2,1.5,0.5,2.2,0.9
	c0.6,0.3,1,0.5,1.3,0.7l-2.2,6.3c-1.2-0.6-2.4-1.1-3.7-1.4c-1.6-0.4-3.2-0.6-4.8-0.6c-1.2,0-2.4,0.2-3.5,0.6
	c-1.2,0.4-2.2,1.1-3.1,1.9c-0.9,1-1.7,2.1-2.1,3.4c-0.6,1.6-0.8,3.4-0.8,5.1c0,1.5,0.2,3,0.5,4.5c0.3,1.3,0.9,2.5,1.7,3.6
	c0.8,1,1.9,1.8,3.1,2.4c1.5,0.6,3,0.9,4.6,0.9c1,0,2-0.1,3-0.2c0.8-0.1,1.6-0.3,2.4-0.5c0.6-0.2,1.3-0.4,1.9-0.6l1.4-0.6l2.1,6.2
	c-1.5,0.8-3,1.4-4.6,1.8C136.9,151.3,134.6,151.5,132.3,151.5z"/>
</svg>
